<?xml version="1.0" ?><svg style="enable-background:new 0 0 48 48;" version="1.1" viewBox="0 0 48 48" xml:space="preserve" xmlns="http://www.w3.org/2000/svg" xmlns:xlink="http://www.w3.org/1999/xlink"><style type="text/css">
	.st0{display:none;}
	.st1{fill:none;stroke:#303030;stroke-width:0.7;stroke-linecap:round;stroke-linejoin:round;stroke-miterlimit:10;}
	.st2{fill:#303030;}
</style><g class="st0" id="Padding__x26__Artboard"/><g id="Icons"><g><polyline class="st1" points="19.875,33.4695 21.725,33.4695 27.045,33.4695   "/><path class="st1" d="M28.455,33.4695c-0.43287-1.83969-1.87399-3.18704-3.46558-4.01269c0.17-0.08,0.26304-0.1143,0.42304-0.1943    c0.71-0.36,1.07254-0.55301,1.37254-1.31301c0.28-0.7,0.29-0.78,0.33-1.51l-0.34-0.42c-0.26-0.37-0.45-1.79-0.45-1.79    c-0.31,0-0.55-0.32-0.63-0.57c-0.13-0.4-0.25-0.77-0.3-1.19c-0.04-0.31-0.1-0.69,0.15-0.93c0.04-0.05,0.4-0.14,0.45-0.03    c-0.04-0.07-0.09-1.97-0.09-1.97s-0.25-1.14-0.02-2.05c0.24-0.91,0.73-1.41,1.48-1.41c0,0,1.44-1.27,3.82-0.73    c2.38,0.55,2.85,2.82,2.85,2.82l0.14,1.03l-0.47,0.34c0,0-0.05,1.9-0.08,1.97c0.05-0.11,0.41-0.02,0.45,0.03    c0.25,0.24,0.18,0.62,0.15,0.93c-0.05,0.42-0.18,0.79-0.31,1.19c-0.08,0.25-0.32,0.57-0.62,0.57c0,0-0.2,1.42-0.45,1.79    l-0.34,0.42c0.04,0.73,0.05,0.81,0.32,1.51c0.31,0.76,0.89,1.05,1.59,1.41c0.52,0.26,1.03,0.52,1.54,0.79    c0.93,0.48,2.04,0.95,2.8,1.68c0.04,0.04,0.07,0.07,0.1,0.1c0.63,0.73,0.85,1.37,0.88,1.54H28.455"/><g><path class="st1" d="M15.435,25.8195c-0.04,0.71-0.04,1.45-0.31,2.12c-0.29,0.73-1.16,1.03-1.83,1.38     c-0.49,0.25-0.98,0.5-1.46,0.75c-0.87,0.47-1.92,0.93-2.65,1.63c-0.02,0.03-0.06,0.07-0.08,0.1c-0.6,0.7-0.8,1.5-0.84,1.67h11.29     h0.32h1.85h5.32"/><path class="st1" d="M27.045,33.4695c-0.04-0.17-0.24-0.97-0.84-1.67c-0.03-0.03-0.06-0.07-0.09-0.1     c-0.68-0.66-1.64-1.1-2.48-1.54c-0.06-0.03-0.12-0.06-0.17-0.09c-0.05-0.02-0.1-0.05-0.15-0.07c-0.43-0.23-0.87-0.45-1.31-0.68     c-0.66-0.35-1.5-0.65-1.78-1.38c-0.27-0.67-0.27-1.41-0.32-2.12"/><g><path class="st1" d="M15.435,25.8195h-1.59l0.39-0.48c0,0-1.77-0.35-1.77-0.49001      c0.00002-0.12852,0.15259-0.29683,0.22019-0.39585c0.10674-0.15633,0.22842-0.30311,0.33347-0.46025      c0.12044-0.18018-0.06429-0.59916-0.12525-0.79565c-0.09694-0.31248-0.21267-0.61902-0.30078-0.93426      c-0.2558-0.9153-0.22935-1.92632-0.05996-2.8547c0.16478-0.90312,0.48728-1.79018,0.99193-2.56009      c0.46001-0.7018,1.09035-1.31566,1.87863-1.6309c0.37854-0.15138,0.78417-0.22829,1.19177-0.22829      c0.69884-0.3405,1.48329-0.54158,2.26218-0.42635c0.66135,0.09784,1.2618,0.42072,1.75468,0.86566      c0.52469,0.47365,0.93163,1.06831,1.25365,1.69409c0.33531,0.65161,0.58396,1.34791,0.75907,2.05893      c0.15771,0.64039,0.26011,1.29994,0.27095,1.9602c0.00467,0.2847,0.01169,0.60664-0.05694,0.88293      c-0.15385,0.61939-0.47637,1.19299-0.54892,1.85253c-0.01657,0.15546,0.23624,0.39063,0.32341,0.51575      c0.07818,0.11221,0.26192,0.30954,0.26192,0.45626c0,0.14-1.77,0.49-1.77,0.49l0.4,0.48h-1.6"/></g></g></g></g></svg>